{"scene":0,"asset":{"generator":"ImageToStl.com","version":"2.0"},"scenes":[{"name":"Scene","nodes":[0]}],"nodes":[{"name":"Node0","children":[1]},{"name":"Node1","mesh":0}],"materials":[{"name":"Material.001","pbrMetallicRoughness":{"baseColorFactor":[0.8,0.8,0.8,1.0],"metallicFactor":0.5,"roughnessFactor":0.75},"emissiveFactor":[0.0,0.0,0.0],"doubleSided":true},{"name":"Material.002","pbrMetallicRoughness":{"baseColorFactor":[0.8,0.8,0.8,1.0],"metallicFactor":0.5,"roughnessFactor":0.75},"emissiveFactor":[0.0,0.0,0.0],"doubleSided":true},{"name":"Material.003","pbrMetallicRoughness":{"baseColorFactor":[0.8,0.8,0.8,1.0],"metallicFactor":0.5,"roughnessFactor":0.75},"emissiveFactor":[0.0,0.0,0.0],"doubleSided":true},{"name":"Material.004","pbrMetallicRoughness":{"baseColorFactor":[0.8,0.8,0.8,1.0],"metallicFactor":0.5,"roughnessFactor":0.75},"emissiveFactor":[0.0,0.0,0.0],"doubleSided":true}],"meshes":[{"name":"Mesh0","primitives":[{"indices":3,"material":0,"attributes":{"POSITION":0,"NORMAL":1,"TEXCOORD_0":2}},{"indices":4,"material":1,"attributes":{"POSITION":0,"NORMAL":1,"TEXCOORD_0":2}},{"indices":5,"material":2,"attributes":{"POSITION":0,"NORMAL":1,"TEXCOORD_0":2}},{"indices":6,"material":3,"attributes":{"POSITION":0,"NORMAL":1,"TEXCOORD_0":2}}]}],"accessors":[{"bufferView":0,"componentType":5126,"count":1298,"type":"VEC3","min":[-1.699757,-1.3549439,-0.9065876],"max":[11.414456,1.3549433,10.500453]},{"bufferView":1,"componentType":5126,"count":1298,"type":"VEC3"},{"bufferView":2,"componentType":5126,"count":1298,"type":"VEC2"},{"bufferView":3,"componentType":5123,"count":864,"type":"SCALAR"},{"bufferView":4,"componentType":5123,"count":18432,"type":"SCALAR"},{"bufferView":5,"componentType":5123,"count":1440,"type":"SCALAR"},{"bufferView":6,"componentType":5123,"count":1728,"type":"SCALAR"}],"bufferViews":[{"target":34962,"buffer":0,"byteLength":15576,"byteOffset":0},{"target":34962,"buffer":0,"byteLength":15576,"byteOffset":15576},{"target":34962,"buffer":0,"byteLength":10384,"byteOffset":31152},{"target":34963,"buffer":0,"byteLength":1728,"byteOffset":41536},{"target":34963,"buffer":0,"byteLength":36864,"byteOffset":43264},{"target":34963,"buffer":0,"byteLength":2880,"byteOffset":80128},{"target":34963,"buffer":0,"byteLength":3456,"byteOffset":83008}],"buffers":[{"byteLength":86464,"uri":"data:application/octet-stream;base64,"}]}